<?xml version="1.0" encoding="utf-8"?>
<!-- Generator: Adobe Illustrator 24.2.0, SVG Export Plug-In . SVG Version: 6.00 Build 0)  -->
<svg version="1.1" id="lines" xmlns="http://www.w3.org/2000/svg" xmlns:xlink="http://www.w3.org/1999/xlink" x="0px" y="0px"
	 viewBox="0 0 314.94 472.93" style="enable-background:new 0 0 314.94 472.93;" xml:space="preserve">
<style type="text/css">
	.st0{fill:#008D06;}
	.st1{fill:#58B947;}
	.st2{fill:#E6E7E8;}
	.st3{fill:#F49700;}
	.st4{fill:none;stroke:#000000;stroke-width:5;stroke-miterlimit:10;}
</style>
<g id="XMLID_1_">
	<g>
		<path class="st0" d="M210.85,189.17c0,0-11.28-11.12-34.21-24.2c7.7-4.64,19.09-12.18,32-20.98c36.79-11.07,80.33-9.41,80.33-4.81
			C288.97,144.22,234.84,175.54,210.85,189.17z"/>
		<path class="st1" d="M63.58,128.12c4.78,0.87-57.5-4.47-57.5-4.47c20.41,0,39.25,1.43,56.55,3.86
			C63,127.86,63.32,128.07,63.58,128.12z"/>
		<path class="st2" d="M159.72,305.21c-18.53,9.58-37.27,19.67-54.38,29.6v-52.25C122.22,289.1,140.85,296.73,159.72,305.21z"/>
		<path class="st2" d="M232.56,342.86c-1.53,5.49-3.73,10.74-6.5,15.65c-5.81,3.95-11.79,8.1-17.84,12.39v-41.96
			C216.61,333.45,224.78,338.1,232.56,342.86z"/>
		<path class="st2" d="M226.06,358.51c-10.66,18.96-29.79,33.03-52.63,37.72c8-5.96,16.17-11.97,24.3-17.83h10.49v-7.5
			C214.27,366.61,220.25,362.46,226.06,358.51z"/>
		<path class="st2" d="M105.34,282.56v52.25c-7.6,4.41-14.88,8.79-21.67,13.08c-0.6-0.31-1.19-0.63-1.78-0.93
			c-2.54-7.28-3.91-15.07-3.91-23.15c0-17.11,6.15-32.87,16.48-45.42C97.99,279.72,101.62,281.11,105.34,282.56z"/>
		<path class="st0" d="M97.42,202.18c15.34-4.94,33.83-7.82,56.1-7.82c11.36,0,21.77,0.74,31.31,2.11L97.42,202.18z"/>
		<path class="st3" d="M173.43,396.23c-0.44,0.34-0.89,0.67-1.33,1c-0.32-0.19-0.63-0.37-0.95-0.56
			C171.91,396.54,172.67,396.4,173.43,396.23z"/>
		<path class="st3" d="M232.56,342.86c2.99,1.83,5.92,3.67,8.78,5.53c-4.92,3.16-10.03,6.55-15.28,10.12
			C228.83,353.6,231.03,348.35,232.56,342.86z"/>
		<path class="st1" d="M6.08,123.65c0,0,62.28,5.34,57.5,4.47c-0.26-0.05-0.58-0.26-0.95-0.61c48.77,6.85,85.23,21.7,109.79,35.11
			c-0.66,0.58-1.3,1.19-1.92,1.81c-7.71,7.71-4,6.64,6.14,0.54c22.93,13.08,34.21,24.2,34.21,24.2L6.08,123.65z"/>
		<path class="st0" d="M87.05,90.31c-2.39-2.39-3.91-62.59-3.91-62.59l42.16,49.12c0,0,32.3-76.84,36.75-76.84
			c0,0-6.62,84.23-11.93,121.8c-2.21,5.82-3.7,11.71-4.31,17.61c1.16,1.15,2.67-6,4.31-17.61c2.17-5.74,5.03-11.41,8.43-16.97
			c29.38-48.18,98.25-88.01,99.33-88.63l-75.6,112.79c13.76-20.53,124.81-54.54,124.81-54.54s-57,41.28-98.45,69.54
			c-13.96,4.19-26.95,10.22-36.22,18.63c-24.56-13.41-61.02-28.26-109.79-35.11c-6.29-6.02-26.87-54.15-26.87-54.15L87.05,90.31z"/>
		<path class="st3" d="M184.83,196.47c8.91,1.27,17.06,3.1,24.52,5.4c-14.68,0-35.86,11.1-58.6,26.93
			c-35.13-14.63-62.08-23.45-62.08-23.45c2.79-1.13,5.7-2.19,8.74-3.17h0.01L184.83,196.47z"/>
		<path class="st3" d="M172.1,397.23c0.44-0.33,0.89-0.66,1.33-1c22.84-4.69,41.97-18.76,52.63-37.72
			c5.25-3.57,10.36-6.96,15.28-10.12c21.04-13.57,38.45-22.97,47.09-23.62c-0.18,5.25-0.52,8.77-0.52,9.88
			c0,7.91,0,140.29-134.39,140.29c-134.38,0-126.84-140.29-126.84-140.29s-19.57-96.24,61.99-129.3c0,0,26.95,8.82,62.08,23.45
			c-19.92,13.86-41.05,31.35-60.04,48.18c-22,19.5-41.14,38.11-52.29,49.21c10.38,3.99,25.74,11.47,43.47,20.77
			c0.19,0.56,0.4,1.12,0.61,1.67c10.82,28.74,39.9,49.32,74.08,49.32c4.98,0,9.85-0.44,14.57-1.28
			C171.47,396.86,171.78,397.04,172.1,397.23z"/>
		<path class="st3" d="M83.67,347.89c-0.39,0.24-0.78,0.49-1.17,0.74c-0.21-0.55-0.42-1.11-0.61-1.67
			C82.48,347.26,83.07,347.58,83.67,347.89z"/>
		<path class="st2" d="M171.15,396.67c-4.72,0.84-9.59,1.28-14.57,1.28c-34.18,0-63.26-20.58-74.08-49.32
			c0.39-0.25,0.78-0.5,1.17-0.74c6.93,3.65,14.21,7.56,21.67,11.64v18.87h33.89C150.08,384.55,160.86,390.73,171.15,396.67z"/>
		<path class="st0" d="M153.52,194.36c-22.27,0-40.76,2.88-56.1,7.82h-0.01L6.08,123.65l204.77,65.52
			c-6.83,3.88-11.22,6.33-11.22,6.33l-14.8,0.97C175.29,195.1,164.88,194.36,153.52,194.36z"/>
		<path class="st3" d="M233.4,268.89c-5.05,2.39-10.48,4.97-16.2,7.73c-14.42-16.46-36.22-26.94-60.62-26.94
			c-25.26,0-47.74,11.24-62.12,28.71c-1.27-0.48-2.52-0.95-3.75-1.41c18.99-16.83,40.12-34.32,60.04-48.18
			C176.38,239.46,206.36,253.22,233.4,268.89z"/>
		<path class="st2" d="M208.22,328.94v41.96c-3.48,2.46-6.98,4.97-10.49,7.5h-58.5c-11.38-6.44-22.85-12.84-33.89-18.87v-24.72
			c17.11-9.93,35.85-20.02,54.38-29.6C176.04,312.54,192.53,320.5,208.22,328.94z"/>
		<path class="st1" d="M176.64,164.97c-10.14,6.1-13.85,7.17-6.14-0.54c0.62-0.62,1.26-1.23,1.92-1.81
			C173.87,163.41,175.28,164.19,176.64,164.97z"/>
		<path class="st0" d="M150.12,121.8c-1.64,11.61-3.15,18.76-4.31,17.61C146.42,133.51,147.91,127.62,150.12,121.8z"/>
		<path class="st2" d="M139.23,378.4h58.5c-8.13,5.86-16.3,11.87-24.3,17.83c-0.76,0.17-1.52,0.31-2.28,0.44
			C160.86,390.73,150.08,384.55,139.23,378.4z"/>
		<path class="st2" d="M208.22,370.9v7.5h-10.49C201.24,375.87,204.74,373.36,208.22,370.9z"/>
		<path class="st2" d="M208.22,275.52v5.43c-15.07,7.31-31.7,15.57-48.5,24.26c-18.87-8.48-37.5-16.11-54.38-22.65v-7.04H208.22z"/>
		<path class="st2" d="M156.58,249.68c24.4,0,46.2,10.48,60.62,26.94c-2.92,1.4-5.92,2.84-8.98,4.33v-5.43H105.34v7.04
			c-3.72-1.45-7.35-2.84-10.88-4.17C108.84,260.92,131.32,249.68,156.58,249.68z"/>
		<path class="st2" d="M235.19,323.81c0,6.58-0.91,12.97-2.63,19.05c-7.78-4.76-15.95-9.41-24.34-13.92v-47.99
			c3.06-1.49,6.06-2.93,8.98-4.33C228.44,289.44,235.19,305.88,235.19,323.81z"/>
		<path class="st2" d="M139.23,378.4h-33.89v-18.87C116.38,365.56,127.85,371.96,139.23,378.4z"/>
		<path class="st3" d="M90.71,276.98c1.23,0.46,2.48,0.93,3.75,1.41c-10.33,12.55-16.48,28.31-16.48,45.42
			c0,8.08,1.37,15.87,3.91,23.15c-17.73-9.3-33.09-16.78-43.47-20.77C49.57,315.09,68.71,296.48,90.71,276.98z"/>
		<path class="st2" d="M208.22,280.95v47.99c-15.69-8.44-32.18-16.4-48.5-23.73C176.52,296.52,193.15,288.26,208.22,280.95z"/>
		<path class="st2" d="M105.34,334.81v24.72c-7.46-4.08-14.74-7.99-21.67-11.64C90.46,343.6,97.74,339.22,105.34,334.81z"/>
		<path class="st3" d="M233.4,268.89c-27.04-15.67-57.02-29.43-82.65-40.09c22.74-15.83,43.92-26.93,58.6-26.93h0.01
			c76.62,23.54,80.01,95.95,79.07,122.9c-8.64,0.65-26.05,10.05-47.09,23.62c-2.86-1.86-5.79-3.7-8.78-5.53
			c1.72-6.08,2.63-12.47,2.63-19.05c0-17.93-6.75-34.37-17.99-47.19C222.92,273.86,228.35,271.28,233.4,268.89z"/>
		<path class="st0" d="M176.64,164.97c-1.36-0.78-2.77-1.56-4.22-2.35c9.27-8.41,22.26-14.44,36.22-18.63
			C195.73,152.79,184.34,160.33,176.64,164.97z"/>
	</g>
	<g>
		<path class="st4" d="M209.35,201.87c-7.46-2.3-15.61-4.13-24.52-5.4"/>
		<path class="st4" d="M97.41,202.18c-3.04,0.98-5.95,2.04-8.74,3.17c-81.56,33.06-61.99,129.3-61.99,129.3
			s-7.54,140.29,126.84,140.29c134.39,0,134.39-132.38,134.39-140.29c0-1.11,0.34-4.63,0.52-9.88c0.94-26.95-2.45-99.36-79.07-122.9
			"/>
		<path class="st4" d="M88.67,205.35c0,0,26.95,8.82,62.08,23.45c25.63,10.66,55.61,24.42,82.65,40.09
			c21.19,12.29,40.58,25.75,54.66,39.82"/>
		<path class="st4" d="M232.56,342.86c2.99,1.83,5.92,3.67,8.78,5.53c14.74,9.55,27.76,19.5,37.92,29.66"/>
		<path class="st4" d="M35.21,257.65c0,0,23,7.17,55.5,19.33c1.23,0.46,2.48,0.93,3.75,1.41"/>
		<path class="st4" d="M83.67,347.89c-0.6-0.31-1.19-0.63-1.78-0.93c-17.73-9.3-33.09-16.78-43.47-20.77
			c-5.28-2.03-9.27-3.16-11.63-3.16"/>
		<path class="st4" d="M243.3,439.22c0,0-31.82-19.2-71.2-41.99c-0.32-0.19-0.63-0.37-0.95-0.56"/>
		<path class="st4" d="M226.06,358.51c5.25-3.57,10.36-6.96,15.28-10.12c21.04-13.57,38.45-22.97,47.09-23.62
			c0.32-0.03,0.63-0.04,0.92-0.04"/>
		<path class="st4" d="M91.57,459.75c0,0,37.67-30.5,80.53-62.52c0.44-0.33,0.89-0.66,1.33-1"/>
		<path class="st4" d="M209.36,201.87L209.36,201.87c-14.69,0-35.87,11.1-58.61,26.93c-19.92,13.86-41.05,31.35-60.04,48.18
			c-22,19.5-41.14,38.11-52.29,49.21c-6.54,6.51-10.33,10.43-10.33,10.43"/>
		<path class="st4" d="M83.67,347.89c-0.39,0.24-0.78,0.49-1.17,0.74c-27.49,17.43-46.74,33.25-46.74,43.36"/>
		<path class="st4" d="M270.74,251.64c0,0-14.96,6.69-37.34,17.25c-5.05,2.39-10.48,4.97-16.2,7.73"/>
		<path class="st4" d="M62.63,127.51c-6.29-6.02-26.87-54.15-26.87-54.15l51.29,16.95c-2.39-2.39-3.91-62.59-3.91-62.59l42.16,49.12
			c0,0,32.3-76.84,36.75-76.84c0,0-6.62,84.23-11.93,121.8"/>
		<path class="st4" d="M172.42,162.62c9.27-8.41,22.26-14.44,36.22-18.63c36.79-11.07,80.33-9.41,80.33-4.81
			c0,5.04-54.13,36.36-78.12,49.99c-6.83,3.88-11.22,6.33-11.22,6.33l-14.8,0.97l-87.41,5.71h-0.01L6.08,123.65"/>
		<path class="st4" d="M257.89,16.19l-0.01,0.01l-75.6,112.79c13.76-20.53,124.81-54.54,124.81-54.54s-57,41.28-98.45,69.54
			c-12.91,8.8-24.3,16.34-32,20.98"/>
		<path class="st4" d="M150.12,121.8c2.17-5.74,5.03-11.41,8.43-16.97c29.38-48.18,98.25-88.01,99.33-88.63"/>
		<path class="st4" d="M150.12,121.8c-1.64,11.61-3.15,18.76-4.31,17.61C146.42,133.51,147.91,127.62,150.12,121.8z"/>
		<path class="st4" d="M210.85,189.17c0,0-11.28-11.12-34.21-24.2c-1.36-0.78-2.77-1.56-4.22-2.35
			c-24.56-13.41-61.02-28.26-109.79-35.11c-17.3-2.43-36.14-3.86-56.55-3.86"/>
		<path class="st4" d="M217.2,276.62c11.24,12.82,17.99,29.26,17.99,47.19c0,6.58-0.91,12.97-2.63,19.05
			c-1.53,5.49-3.73,10.74-6.5,15.65c-10.66,18.96-29.79,33.03-52.63,37.72c-0.76,0.17-1.52,0.31-2.28,0.44
			c-4.72,0.84-9.59,1.28-14.57,1.28c-34.18,0-63.26-20.58-74.08-49.32c-0.21-0.55-0.42-1.11-0.61-1.67
			c-2.54-7.28-3.91-15.07-3.91-23.15c0-17.11,6.15-32.87,16.48-45.42c14.38-17.47,36.86-28.71,62.12-28.71
			C180.98,249.68,202.78,260.16,217.2,276.62z"/>
	</g>
</g>
<circle id="middle_dot" cx="155.65" cy="325.6" r="9.02"/>
<line id="big_hand" class="st4" x1="155.74" y1="325.02" x2="155.56" y2="267.79"/>
<line id="little_hand" class="st4" x1="154.91" y1="325.32" x2="205.19" y2="338.2"/>
</svg>
